<?xml version="1.0" encoding="UTF-8"?>
<svg id="Layer_2" data-name="Layer 2" xmlns="http://www.w3.org/2000/svg" viewBox="0 0 1446.62 777.61">
  <defs>
    <style>
      .cls-1 {
        fill: #fff;
      }
    </style>
  </defs>
  <g id="Layer_1-2" data-name="Layer 1">
    <g>
      <path class="cls-1" d="M185.79,479.05c-22.47.34-44.11-1.34-64.9-5.03-20.8-3.69-40.42-9.39-58.87-17.11-18.45-7.71-34.72-18.28-48.8-31.7-11.4-12.07-15.43-25.16-12.07-39.24,3.35-14.09,11.74-25.49,25.16-34.21,25.49-15.43,53-25.16,82.51-29.18,29.52-4.02,58.7-5.7,87.54-5.03,28.18.67,57.02,2.52,86.54,5.53,29.52,3.02,58.03,8.89,85.53,17.61,50.31-57.02,100.96-113.37,151.94-169.05,50.98-55.68,101.97-112.03,152.95-169.05,1.34-2.01,3.52-2.85,6.54-2.52,3.02.34,5.87,1.51,8.55,3.52,2.68,2.01,4.7,4.36,6.04,7.04,1.34,2.68,1.01,5.37-1.01,8.05-42.26,67.08-79.49,136.18-111.69,207.29-32.2,71.11-60.38,144.23-84.53,219.36,8.05,20.8,11.4,42.43,10.06,64.9-1.34,22.47-5.7,44.95-13.08,67.42-7.38,22.47-16.77,44.11-28.18,64.9s-23.14,39.91-35.22,57.36c-2.01,2.01-4.02,3.52-6.04,4.53s-4.7.5-8.05-1.51c-3.35-2.01-5.03-5.53-5.03-10.57s.5-10.57,1.51-16.6c1.01-6.04,2.18-11.74,3.52-17.11,1.34-5.37,2.35-9.73,3.02-13.08,10.06-34.88,20.46-69.6,31.19-104.15,10.73-34.55,21.8-68.93,33.21-103.14-10.06-20.8-24.99-38.24-44.78-52.33-19.79-14.09-42.43-25.49-67.92-34.21-16.1,19.45-32.2,38.74-48.3,57.86-16.1,19.12-31.86,38.41-47.29,57.86,20.12-3.35,40.25-7.21,60.38-11.57,20.13-4.36,38.24-10.23,54.34-17.61,3.35-1.34,4.86-2.52,4.53-3.52s1.17-2.18,4.53-3.52c6.71-2.68,11.07-1.51,13.08,3.52,2.01,5.03,1.01,8.22-3.02,9.56-18.78,7.38-40.25,13.25-64.4,17.61-24.15,4.36-49.31,8.22-75.47,11.57-15.43,19.45-30.52,38.57-45.28,57.36-14.76,18.78-29.52,37.9-44.28,57.36l-83.52,109.68-16.1,26.16c-5.37,8.72-10.73,17.78-16.1,27.17-1.34,2.01-1.01,3.69,1.01,5.03,2.01,1.34,2.35,3.35,1.01,6.04-2.01,5.37-6.88,9.56-14.59,12.58-7.71,3.02-14.26,3.52-19.62,1.51-7.38-2.68-11.74-8.05-13.08-16.1-1.34-8.05,1.34-14.42,8.05-19.12,16.1-12.07,30.86-26.16,44.28-42.26,13.42-16.1,26.5-32.2,39.24-48.3,12.75-15.43,25.66-31.36,38.74-47.8,13.08-16.44,26-32.37,38.74-47.8l65.41-79.49c-22.81,2.01-45.45,3.19-67.92,3.52ZM35.86,358.8c-11.07,6.71-18.62,14.42-22.64,23.14-4.02,8.72-4.02,17.95,0,27.67,4.03,9.73,14.09,19.62,30.19,29.68,28.18,16.77,61.38,27.17,99.62,31.19s76.81,3.69,115.72-1.01c16.77-20.12,33.71-40.25,50.82-60.38s34.38-40.25,51.82-60.38c-23.48-6.71-47.63-11.4-72.45-14.09-36.23-3.35-72.28-5.2-108.17-5.53-35.89-.34-71.61,4.19-107.17,13.58-14.09,4.02-26.67,9.39-37.73,16.1ZM440.37,374.9c19.79,13.42,35.72,30.86,47.8,52.33,15.43-42.93,29.35-81.51,41.76-115.72,12.41-34.21,24.15-65.24,35.22-93.08s21.97-53.5,32.7-76.98,21.8-45.95,33.21-67.42c-15.43,14.76-31.03,30.02-46.79,45.78s-33.37,34.04-52.83,54.84c-19.45,20.8-41.59,44.95-66.41,72.45-24.82,27.5-53.67,59.7-86.54,96.6,21.47,7.38,42.09,17.78,61.88,31.19ZM492.2,458.42c-12.07,38.24-22.14,74.46-30.19,108.68-8.05,34.21-16.1,67.75-24.15,100.63,11.4-13.42,20.96-28.68,28.68-45.78,7.71-17.11,14.26-33.37,19.62-48.8,14.76-43.6,16.77-81.84,6.04-114.71Z"/>
      <path class="cls-1" d="M776.96,474.02c-4.03-2.35-6.88-6.04-8.55-11.07-1.68-5.03-2.68-10.73-3.02-17.11s-.5-12.24-.5-17.61c0-2.68.17-7.04.5-13.08s-1.17-9.73-4.53-11.07c-5.37,0-11.24,3.02-17.61,9.06-6.37,6.04-12.24,12.91-17.61,20.63-5.37,7.71-10.23,15.43-14.59,23.14-4.36,7.71-7.21,13.25-8.55,16.6-2.01,3.35-4.7,5.2-8.05,5.53s-6.37-.17-9.06-1.51c-2.68-1.34-4.7-3.52-6.04-6.54-1.34-3.02-1.34-6.54,0-10.57,2.01-6.04,4.19-13.08,6.54-21.13,2.35-8.05,4.19-16.27,5.53-24.65,1.34-8.39,2.01-16.6,2.01-24.65s-1.34-15.09-4.02-21.13c-4.7,1.34-10.23,4.86-16.6,10.57-6.37,5.7-11.91,11.24-16.6,16.6-13.42,14.09-25.83,29.35-37.23,45.78s-21.8,33.37-31.19,50.82c-2.68,5.37-5.37,10.4-8.05,15.09-2.68,4.7-5.03,9.73-7.04,15.09-1.34,3.35-3.02,6.04-5.03,8.05-2.68,3.35-5.7,5.03-9.06,5.03s-6.37-.84-9.06-2.52c-2.68-1.68-4.7-4.19-6.04-7.55-1.34-3.35-1.01-7.04,1.01-11.07,7.38-15.43,15.6-30.69,24.65-45.78,9.06-15.09,17.61-30.02,25.66-44.78,7.38-14.09,14.76-28.34,22.14-42.77,7.38-14.42,12.41-29.35,15.09-44.78,1.34-8.72,4.19-14.26,8.55-16.6,4.36-2.35,8.55-2.85,12.58-1.51,4.02,1.34,7.04,4.19,9.06,8.55s1.34,8.89-2.01,13.58c-10.06,14.09-19.12,28.85-27.17,44.28-8.05,15.43-15.77,30.86-23.14,46.29l-7.04,17.11,22.14-27.17c8.72-10.73,17.11-21.63,25.16-32.7,8.05-11.07,17.44-20.63,28.18-28.68,7.38-6.04,13.42-7.71,18.11-5.03,4.7,2.68,8.39,7.71,11.07,15.09,2.68,7.38,4.19,16.27,4.53,26.67s.17,20.63-.5,30.69c9.39-9.39,19.12-17.44,29.18-24.15,10.06-6.71,17.78-9.06,23.14-7.04,6.04,2.01,9.56,6.88,10.57,14.59,1.01,7.71,1.68,15.76,2.01,24.15s1.17,15.43,2.52,21.13c1.34,5.7,5.37,7.21,12.08,4.53,17.44-5.37,33.04-14.09,46.79-26.16,13.75-12.08,27-24.82,39.75-38.24,2.01-2.68,4.36-2.85,7.04-.5,2.68,2.35,3.02,4.86,1.01,7.55-15.43,12.08-30.02,24.32-43.77,36.73-13.75,12.41-29.35,23.31-46.79,32.7-8.05,3.35-14.09,3.86-18.11,1.51Z"/>
      <path class="cls-1" d="M844.38,475.53c-2.68-13.42-1.34-25.49,4.02-36.23l1.01-2.01c0-6.71,2.68-11.74,8.05-15.09,5.37-9.39,12.07-18.11,20.12-26.16,8.05-8.05,16.44-15.43,25.16-22.14,4.7-3.35,9.73-6.37,15.09-9.06s11.07-4.36,17.11-5.03c6.04-1.34,12.08-.33,18.11,3.02s8.39,8.72,7.04,16.1c-2.68,7.38-7.38,14.42-14.09,21.13-6.71,6.71-14.42,13.08-23.14,19.12-8.72,6.04-17.44,11.74-26.16,17.11-8.72,5.37-16.44,10.06-23.14,14.09-2.68,1.34-5.03,2.01-7.04,2.01,0,1.34-.17,2.52-.5,3.52s-.5,2.18-.5,3.52c-2.01,8.72-.84,14.76,3.52,18.11,4.36,3.35,9.9,5.03,16.6,5.03s13.75-.67,21.13-2.01c7.38-1.34,13.42-2.68,18.11-4.02,25.49-7.38,50.31-17.78,74.46-31.19,24.15-13.42,45.95-29.85,65.41-49.31,2.01-2.01,4.02-2.68,6.04-2.01s3.52,2.01,4.53,4.02c1.01,2.01,1.17,4.36.5,7.04s-2.35,4.7-5.03,6.04c-25.49,18.78-49.47,34.88-71.95,48.3-22.47,13.42-45.45,24.49-68.93,33.21-9.39,3.35-19.45,6.21-30.19,8.55-10.73,2.35-21.13,2.18-31.19-.5-13.42-3.35-21.47-11.74-24.15-25.16ZM881.61,415.15c12.75-4.7,25.16-10.23,37.23-16.6,12.08-6.37,21.47-14.26,28.18-23.65-5.37-3.35-11.57-3.86-18.62-1.51-7.04,2.35-13.25,5.53-18.62,9.56-11.4,7.38-20.8,18.11-28.18,32.2Z"/>
      <path class="cls-1" d="M1444.11,405.09c-6.04,4.7-12.07,9.56-18.11,14.59s-12.08,10.23-18.11,15.6c-4.7,4.03-11.4,9.56-20.12,16.6-8.72,7.04-17.44,12.58-26.16,16.6-8.72,4.02-16.6,5.2-23.65,3.52-7.04-1.68-11.24-9.22-12.58-22.64-.67-10.73.5-20.96,3.52-30.69,3.02-9.73,4.86-19.62,5.53-29.68-13.42,3.35-25.66,9.56-36.73,18.62s-21.3,18.95-30.69,29.68c-4.02,11.4-8.89,22.31-14.59,32.7-5.7,10.4-11.91,20.96-18.62,31.7-3.35,5.37-8.39,6.71-15.09,4.02-6.71-2.68-9.39-7.38-8.05-14.09l1.01-3.02c5.37-9.39,11.4-18.11,18.11-26.16,6.71-8.05,13.75-16.1,21.13-24.15,5.37-10.73,9.9-21.63,13.58-32.7,3.69-11.07,5.87-22.64,6.54-34.72-15.43,8.72-30.02,18.45-43.77,29.18-13.75,10.73-27.5,21.63-41.26,32.7-13.75,11.07-27.84,21.8-42.26,32.2-14.42,10.4-29.68,18.95-45.78,25.66-12.08,5.37-22.98,7.88-32.7,7.55-9.73-.34-17.61-3.02-23.65-8.05s-9.56-12.24-10.57-21.63,1.17-20.46,6.54-33.21c-1.34-3.35-.84-6.88,1.51-10.57,2.35-3.69,5.2-6.21,8.55-7.55,9.39-12.75,19.79-25.16,31.19-37.23,11.4-12.08,24.82-20.13,40.25-24.15,7.38-2.01,14.93-1.01,22.64,3.02,7.71,4.02,9.56,10.73,5.53,20.12-3.35,6.04-8.89,12.58-16.6,19.62-7.71,7.04-16.1,13.75-25.16,20.12s-18.11,12.24-27.17,17.61-16.6,9.39-22.64,12.08c-5.37,17.44-3.52,27.17,5.53,29.18,9.06,2.01,20.63.17,34.72-5.53,14.09-5.7,28.18-12.75,42.26-21.13,14.09-8.39,23.81-14.59,29.18-18.62,28.18-19.45,55.68-41.59,82.51-66.41,2.68-2.68,6.37-6.04,11.07-10.06,4.7-4.02,9.39-7.38,14.09-10.06,4.7-2.68,9.22-3.52,13.58-2.52s7.55,4.86,9.56,11.57c0,5.37-1.51,9.9-4.53,13.58-3.02,3.69-5.2,7.88-6.54,12.58l-12.08,34.21c4.02-2.68,10.06-7.71,18.11-15.09,8.05-7.38,16.1-13.75,24.15-19.12,8.05-5.37,15.26-8.05,21.63-8.05s9.9,6.04,10.57,18.11c0,4.7-.67,10.23-2.01,16.6-1.34,6.37-2.85,12.75-4.53,19.12-1.68,6.37-2.68,12.41-3.02,18.11s.5,10.23,2.52,13.58c4.7,2.01,10.73,1.34,18.11-2.01,7.38-3.35,14.93-7.71,22.64-13.08,7.71-5.37,14.93-10.9,21.63-16.6,6.71-5.7,11.74-10.23,15.09-13.58,3.35-2.68,6.21-5.37,8.55-8.05,2.35-2.68,4.86-5.7,7.55-9.06,2.68-2.68,5.37-2.68,8.05,0,3.35,2.68,3.35,5.7,0,9.06ZM1071.79,410.12c11.4-4.7,22.98-9.9,34.72-15.6s21.3-13.58,28.68-23.65c-8.05-5.37-16.77-5.2-26.16.5s-16.77,11.24-22.14,16.6c-6.71,7.38-11.74,14.76-15.09,22.14Z"/>
    </g>
  </g>
</svg>