<?xml version="1.0" encoding="UTF-8"?>
<svg id="Layer_2" data-name="Layer 2" xmlns="http://www.w3.org/2000/svg" viewBox="0 0 758.07 837.67">
  <defs>
    <style>
      .cls-1 {
        fill: #9c00f7;
      }
    </style>
  </defs>
  <g id="Layer_1-2" data-name="Layer 1">
    <g>
      <path class="cls-1" d="M482.27,595.2c-2.19,23.19-24.05,62.49-48.41,66.33-58.91,9.28-76.48-73.62-79.57-116.17-9.96,22.35-20.12,44.89-47.91,46.8,6.61,55.68,4.66,110.99-24.22,160.28-45.6,77.81-152.17,114.95-228.41,56.87-56.55-43.08-63.67-123.48-43.46-187.5-2.76,10.4-5.44,24.66-5.44,41.7,0,16.87,2.64,31.01,5.37,41.36-1.78-11.27-9.85-69.67,29.33-118.54,5.53-6.9,51.85-64.67,104.97-50.59,41.58,11.02,73.26,62.33,66.15,122.8l-77.41,36.38c9.49-29.52,1.01-109.35-44.23-95.72-37.29,24.32-23.98,87.68,2.52,115.8,34.12,36.2,97.24,34.88,134.78,4.89,39.24-31.35,34.68-72.94,19.96-116.43-5.15-15.2-31.73-62.73-29.39-72.21,3.76-15.22,40.57-41.74,50.95-55.69,31.39,79.37,80.66,48.33,71.43-26.62l54.99-3.46c-.46,27.32,4.82,117.29,43.32,119.8,25.13,1.63,25.47-31.51,32.09-47.43,11.99-28.81,32.37-64.11,69.12-57.56,78.74,14.04,107.71,143.29,61.51,201.48-3.68,4.64-19.25,24.23-43.39,25.89-27,1.86-55-19.26-71.24-53.85,3.6,7.49,13.8,25.92,34.8,34.51,4.91,2.01,9.62,3.15,13.86,3.78-7.01-2.98-24.72-11.61-37.89-31.51-12.58-19-14.01-37.7-14.18-45.37ZM555.35,581.89c11.33-11.44-9.16-60.85-32.24-62.71-1.17-.09-11.12-.75-16.59,6.12-3.67,4.6-3.49,10.28-3.29,12.56.47-1.84,1.92-6.46,6.28-10.17,2.76-2.35,5.59-3.4,7.33-3.89-.63,5.16-1.01,13.23,1.2,22.59,3.98,16.87,16.62,38.84,30.36,38.14,1.24-.06,4.55-.23,6.95-2.65Z"/>
      <path class="cls-1" d="M226.29,129.87c-4.07,19.18-7.52,41.64-8.98,66.87-2.02,34.93-3.12,58.6,9.52,65.51,9.66,5.28,23.55-1.32,30.71-6.79,19.22-14.69,24.11-47.36,12.14-82.24l49.68-6.8c-.35,25.79-10.01,62.63,15.67,79.2,46.09,8.65,4.77-78.39,7.66-82.44l51.59-13.21c1.86,17.25,4.59,31.35,6.87,41.39,8.87,39.19,16.71,43.23,20.33,44.38,5.39,1.71,11.39.18,15.37-2.6,11.16-7.78,9.15-27.25,7.37-44.56-1.13-10.98-3.98-26.93-11.83-45.41l41.68-8.83c6.53,8.75,37.76,52.46,25.47,104.76-8.94,38.04-40.89,80.6-68.75,77.13-13.47-1.68-25.09-14-30.87-20.13-11.79-12.5-16.83-25.85-19.03-33.29-.86,7.81-5.36,41.11-31.82,57.93-4.81,3.06-13.43,8.53-24.4,7.7-17.43-1.33-33.33-18.01-40.18-42.36-1.7,6.12-4.62,14.44-9.82,23.42-2.41,4.16-33.85,56.88-71.87,48.15-25.33-5.81-46.36-37.24-42.98-74.91-46.96,15.18-142.66,57.14-132.95-31.6,8.47-77.43,135.02-114.1,199.43-121.28ZM169.79,189.72c-44.02-.08-77.8,64.79-46.61,98.22l32.78-12.35,13.83-85.87Z"/>
      <path class="cls-1" d="M633.48,309.35c14.33-3.84,24.28-10.71,29.02-14.03,10.28-7.22,20.47-17.32,19.15-19.21-1.67-2.38-18.43,12.91-43.31,15.44-14.07,1.43-34.22-3.03-43.17-10.36-54.93-45,42.33-156.31,98.96-132.2,57.75,46.15,44.06,134.6,14.11,193.57-.12-1.92-.12-4.04.07-6.32.61-7.18,2.93-12.94,4.98-16.86-28.3,38.9-68.62,81.35-121.32,76.36-5.06-8.1-12.74-22.7-15.74-42.54-3.15-20.88.36-37.84,3-47.17,8.47,3.22,29.64,9.92,54.25,3.32ZM684.13,223.78c-7.36-6.19-20.96-1.31-28.28,3.6-8.74,5.85-12.5,14.38-14.04,18.79,9.76-4.18,18.25-6.11,24.76-7.05,11.72-1.7,19.58-.6,21.56-4.86,1.49-3.2-1.02-7.98-4-10.48Z"/>
      <path class="cls-1" d="M508.62,417.91c3.12-1.63,8.33-4.87,12.86-10.77,3.42-4.45,5.21-8.8,6.18-11.81-4.82,4.01-10.06,7.97-15.78,11.79-31.9,21.3-64.8,29.05-89.44,31.84l-6.68-106.35c42.95,3.74,73.46-8.84,94.8-46.48,21.57-38.06,15.93-65.01,8.4-106.26l39.69-13.46c13.59,53.63,14.46,98.15,12.93,127.56,0,0-3.86,74.27-34.54,108.08-4.66,5.13-10.17,8.68-10.17,8.68-6.89,4.43-13.6,6.3-18.25,7.18Z"/>
      <path class="cls-1" d="M721.53,482.17l-23.21-49.84c4.86,69.25,23.21,138.91,59.74,197.78l-83,44.86c-12.52-30.94-25.95-72.7-33.03-123.34-6.61-47.29-5.73-88.48-2.77-120.32,1.63-3.04,3.25-6.08,4.88-9.12l57.44-29.75,19.95,89.72Z"/>
      <path class="cls-1" d="M401.52,740.69c-3.06,15.54-13.56,24.51-17.55,27.92-2.07,1.77-10.54,8.74-23.93,11.97-14.04,3.39-25.69.79-31.11-.8,7.15-2.2,14.3-4.39,21.45-6.59-3.62-.74-18.6-4.24-28.24-18.29-8.38-12.21-12.18-31.58-1.38-47.42,9.58-14.05,27.44-20.64,44.47-16.25-2.15-2.35-4.3-4.7-6.45-7.05,3.7.43,20.29,2.77,32.38,17.42,1.74,2.11,14.51,18.1,10.37,39.09Z"/>
      <path class="cls-1" d="M402.67,693.65c10.68-10.11,28.52-16.87,45.92-9.99,16.3,6.44,27.13,22.84,26.97,41.16-3.31-3.31-6.63-6.62-9.94-9.93,1.79,3.99,6.46,15.83,3.21,30.59-3.36,15.2-13.02,23.91-16.45,26.92-14.22,12.46-30.64,13.29-35.5,13.36,3.68-1.3,9.02-3.81,13.76-8.77,1.35-1.42,2.47-2.84,3.39-4.19-4.97-.6-12.52-2.17-20.61-6.62-12.38-6.81-19.02-16.52-21.87-21.34-6.73-18.28-2.31-38.48,11.12-51.2Z"/>
      <path class="cls-1" d="M186.4,36.81l-6.61,76.45c-49.31,1.06-94.9,26.55-129.62,59.81,1.32-11.14,14.34-16.98,16.43-28.39,3.41-18.57-9.91-36.13,1.61-51.6,5.43-7.29,31.61-23.85,40.74-29.06,23.49-13.39,50.25-25.12,77.45-27.22Z"/>
      <path class="cls-1" d="M199.51,411.83l14.36,35.9c25.58-12.6,57.67-25.93,95.73-36.5,37.42-10.39,71.25-15.51,99.32-17.95v-28.12c-34.48,3.5-73.14,9.41-114.87,19.15-34.77,8.11-66.37,17.64-94.53,27.52Z"/>
      <circle class="cls-1" cx="411.46" cy="91.99" r="35.6"/>
      <circle class="cls-1" cx="334.14" cy="106.8" r="35.6"/>
      <circle class="cls-1" cx="359.15" cy="35.6" r="35.6"/>
    </g>
  </g>
</svg>